<svg width="35" height="34" viewBox="0 0 35 34" fill="none" xmlns="http://www.w3.org/2000/svg">
<path d="M16.0734 2.07307C16.5224 0.691097 18.4776 0.6911 18.9266 2.07306L21.627 10.3841C21.9617 11.4142 22.9216 12.1116 24.0047 12.1116H32.7434C34.1965 12.1116 34.8007 13.971 33.6251 14.8251L26.5553 19.9616C25.6791 20.5982 25.3124 21.7266 25.6471 22.7567L28.3475 31.0677C28.7966 32.4497 27.2148 33.5989 26.0393 32.7448L18.9695 27.6083C18.0932 26.9717 16.9068 26.9717 16.0305 27.6083L8.96074 32.7448C7.78517 33.5989 6.20345 32.4497 6.65247 31.0677L9.3529 22.7567C9.68758 21.7266 9.32094 20.5982 8.44472 19.9616L1.37492 14.8251C0.199347 13.971 0.803512 12.1116 2.25659 12.1116H10.9953C12.0784 12.1116 13.0383 11.4142 13.373 10.3841L16.0734 2.07307Z" stroke="black"/>
</svg>
